HIERARCHY
ROOT Hips
{
	OFFSET -14.64140 90.27770 -84.91600
	CHANNELS 6 Xposition Yposition Zposition Zrotation Xrotation Yrotation
	JOINT Spine
	{
		OFFSET 0.00000 13.20850 -1.60436
		CHANNELS 3 Zrotation Xrotation Yrotation
		JOINT Spine1
		{
			OFFSET 0.00000 8.61716 0.00000
			CHANNELS 3 Zrotation Xrotation Yrotation
			JOINT Spine2
			{
				OFFSET 0.00000 8.61717 0.00000
				CHANNELS 3 Zrotation Xrotation Yrotation
				JOINT Spine3
				{
					OFFSET 0.00000 8.61717 0.00000
					CHANNELS 3 Zrotation Xrotation Yrotation
					JOINT Neck
					{
						OFFSET 0.00000 11.07920 1.10792
						CHANNELS 3 Zrotation Xrotation Yrotation
						JOINT Neck1
						{
							OFFSET 0.00000 7.08032 0.00000
							CHANNELS 3 Zrotation Xrotation Yrotation
							JOINT Head
							{
								OFFSET 0.00000 7.08031 0.00000
								CHANNELS 3 Zrotation Xrotation Yrotation
								End site
								{
									OFFSET 0.00000 0.00000 0.00000
								}
							}
						}
					}
					JOINT RightShoulder
					{
						OFFSET -0.01000 7.91373 5.19711
						CHANNELS 3 Zrotation Xrotation Yrotation
						JOINT RightArm
						{
							OFFSET -18.41580 0.00000 0.00000
							CHANNELS 3 Zrotation Xrotation Yrotation
							JOINT RightForeArm
							{
								OFFSET -29.11090 0.00000 0.00000
								CHANNELS 3 Zrotation Xrotation Yrotation
								JOINT RightHand
								{
									OFFSET -24.65040 0.00000 0.00000
									CHANNELS 3 Zrotation Xrotation Yrotation
									JOINT RightHandThumb1
									{
										OFFSET -5.35114 -0.85590 3.97906
										CHANNELS 3 Zrotation Xrotation Yrotation
										JOINT RightHandThumb2
										{
											OFFSET -4.52789 0.00000 0.00000
											CHANNELS 3 Zrotation Xrotation Yrotation
											JOINT RightHandThumb3
											{
												OFFSET -2.46976 0.00000 0.00000
												CHANNELS 3 Zrotation Xrotation Yrotation
												End site
												{
													OFFSET 0.00000 0.00000 0.00000
												}
											}
										}
									}
									JOINT RightHandIndex1
									{
										OFFSET -14.26970 0.00000 2.88139
										CHANNELS 3 Zrotation Xrotation Yrotation
										JOINT RightHandIndex2
										{
											OFFSET -5.48836 0.00000 0.00000
											CHANNELS 3 Zrotation Xrotation Yrotation
											JOINT RightHandIndex3
											{
												OFFSET -3.01859 0.00000 0.00000
												CHANNELS 3 Zrotation Xrotation Yrotation
												End site
												{
													OFFSET 0.00000 0.00000 0.00000
												}
											}
										}
									}
									JOINT RightHandMiddle1
									{
										OFFSET -14.26970 0.00000 -0.09147
										CHANNELS 3 Zrotation Xrotation Yrotation
										JOINT RightHandMiddle2
										{
											OFFSET -6.17441 0.00000 0.00000
											CHANNELS 3 Zrotation Xrotation Yrotation
											JOINT RightHandMiddle3
											{
												OFFSET -3.56743 0.00000 0.00000
												CHANNELS 3 Zrotation Xrotation Yrotation
												End site
												{
													OFFSET 0.00000 0.00000 0.00000
												}
											}
										}
									}
									JOINT RightHandRing1
									{
										OFFSET -12.69180 0.00000 -3.06433
										CHANNELS 3 Zrotation Xrotation Yrotation
										JOINT RightHandRing2
										{
											OFFSET -5.62556 0.00000 0.00000
											CHANNELS 3 Zrotation Xrotation Yrotation
											JOINT RightHandRing3
											{
												OFFSET -3.56744 0.00000 0.00000
												CHANNELS 3 Zrotation Xrotation Yrotation
												End site
												{
													OFFSET 0.00000 0.00000 0.00000
												}
											}
										}
									}
									JOINT RightHandPinky1
									{
										OFFSET -11.11390 0.00000 -6.03719
										CHANNELS 3 Zrotation Xrotation Yrotation
										JOINT RightHandPinky2
										{
											OFFSET -4.52789 0.00000 0.00000
											CHANNELS 3 Zrotation Xrotation Yrotation
											JOINT RightHandPinky3
											{
												OFFSET -2.46976 0.00000 0.00000
												CHANNELS 3 Zrotation Xrotation Yrotation
												End site
												{
													OFFSET 0.00000 0.00000 0.00000
												}
											}
										}
									}
								}
							}
						}
					}
					JOINT LeftShoulder
					{
						OFFSET 0.01000 7.91373 5.19711
						CHANNELS 3 Zrotation Xrotation Yrotation
						JOINT LeftArm
						{
							OFFSET 18.41580 0.00000 0.00000
							CHANNELS 3 Zrotation Xrotation Yrotation
							JOINT LeftForeArm
							{
								OFFSET 29.11090 0.00000 0.00000
								CHANNELS 3 Zrotation Xrotation Yrotation
								JOINT LeftHand
								{
									OFFSET 24.65040 0.00000 0.00000
									CHANNELS 3 Zrotation Xrotation Yrotation
									JOINT LeftHandThumb1
									{
										OFFSET 5.35114 -0.85590 3.97906
										CHANNELS 3 Zrotation Xrotation Yrotation
										JOINT LeftHandThumb2
										{
											OFFSET 4.52789 0.00000 0.00000
											CHANNELS 3 Zrotation Xrotation Yrotation
											JOINT LeftHandThumb3
											{
												OFFSET 2.46977 0.00000 0.00000
												CHANNELS 3 Zrotation Xrotation Yrotation
												End site
												{
													OFFSET 0.00000 0.00000 0.00000
												}
											}
										}
									}
									JOINT LeftHandIndex1
									{
										OFFSET 14.26970 0.00000 2.88139
										CHANNELS 3 Zrotation Xrotation Yrotation
										JOINT LeftHandIndex2
										{
											OFFSET 5.48836 0.00000 0.00000
											CHANNELS 3 Zrotation Xrotation Yrotation
											JOINT LeftHandIndex3
											{
												OFFSET 3.01859 0.00000 0.00000
												CHANNELS 3 Zrotation Xrotation Yrotation
												End site
												{
													OFFSET 0.00000 0.00000 0.00000
												}
											}
										}
									}
									JOINT LeftHandMiddle1
									{
										OFFSET 14.26970 0.00000 -0.09147
										CHANNELS 3 Zrotation Xrotation Yrotation
										JOINT LeftHandMiddle2
										{
											OFFSET 6.17440 0.00000 0.00000
											CHANNELS 3 Zrotation Xrotation Yrotation
											JOINT LeftHandMiddle3
											{
												OFFSET 3.56744 0.00000 0.00000
												CHANNELS 3 Zrotation Xrotation Yrotation
												End site
												{
													OFFSET 0.00000 0.00000 0.00000
												}
											}
										}
									}
									JOINT LeftHandRing1
									{
										OFFSET 12.69180 0.00000 -3.06433
										CHANNELS 3 Zrotation Xrotation Yrotation
										JOINT LeftHandRing2
										{
											OFFSET 5.62556 0.00000 0.00000
											CHANNELS 3 Zrotation Xrotation Yrotation
											JOINT LeftHandRing3
											{
												OFFSET 3.56744 0.00000 0.00000
												CHANNELS 3 Zrotation Xrotation Yrotation
												End site
												{
													OFFSET 0.00000 0.00000 0.00000
												}
											}
										}
									}
									JOINT LeftHandPinky1
									{
										OFFSET 11.11390 0.00000 -6.03719
										CHANNELS 3 Zrotation Xrotation Yrotation
										JOINT LeftHandPinky2
										{
											OFFSET 4.52789 0.00000 0.00000
											CHANNELS 3 Zrotation Xrotation Yrotation
											JOINT LeftHandPinky3
											{
												OFFSET 2.46976 0.00000 0.00000
												CHANNELS 3 Zrotation Xrotation Yrotation
												End site
												{
													OFFSET 0.00000 0.00000 0.00000
												}
											}
										}
									}
								}
							}
						}
					}
					JOINT pCube4
					{
						OFFSET 0.00000 10.91090 1.10792
						CHANNELS 3 Zrotation Xrotation Yrotation
						End site
						{
							OFFSET 0.00000 0.00000 0.00000
						}
					}
				}
			}
		}
	}
	JOINT RightUpLeg
	{
		OFFSET -9.98441 0.00000 0.00000
		CHANNELS 3 Zrotation Xrotation Yrotation
		JOINT RightLeg
		{
			OFFSET 0.00000 -42.11790 0.00000
			CHANNELS 3 Zrotation Xrotation Yrotation
			JOINT RightFoot
			{
				OFFSET 0.00000 -45.00020 -0.00001
				CHANNELS 3 Zrotation Xrotation Yrotation
				JOINT RightForeFoot
				{
					OFFSET 0.00000 -3.74820 0.00000
					CHANNELS 3 Zrotation Xrotation Yrotation
					JOINT RightToeBase
					{
						OFFSET 0.00000 0.06325 14.43120
						CHANNELS 3 Zrotation Xrotation Yrotation
						End site
						{
							OFFSET 0.00000 0.00000 0.00000
						}
					}
				}
			}
		}
	}
	JOINT LeftUpLeg
	{
		OFFSET 9.98441 0.00000 0.00000
		CHANNELS 3 Zrotation Xrotation Yrotation
		JOINT LeftLeg
		{
			OFFSET 0.00000 -42.11800 0.00000
			CHANNELS 3 Zrotation Xrotation Yrotation
			JOINT LeftFoot
			{
				OFFSET 0.00000 -45.00070 0.00000
				CHANNELS 3 Zrotation Xrotation Yrotation
				JOINT LeftForeFoot
				{
					OFFSET 0.00000 -3.74824 0.00000
					CHANNELS 3 Zrotation Xrotation Yrotation
					JOINT LeftToeBase
					{
						OFFSET 0.00000 0.06325 14.43110
						CHANNELS 3 Zrotation Xrotation Yrotation
						End site
						{
							OFFSET 0.00000 0.00000 0.00000
						}
					}
				}
			}
		}
	}
}
MOTION
Frames: 4
Frame Time: 0.050000
0.02376682335896559 0.04440666076162283 -0.0180960302472276 0.0069030298197334085 0.034833452722296716 -0.011316979447767897 -3.258476683429371 8.549676657106863 -0.6494508850839675 -0.828078256570584 3.137244049388717 0.3642672350705873 -0.856302324004314 0.23734995076323698 -1.7184967916684808 -0.16471909816322539 0.5700039455122189 -1.0620237926211133 -0.49456091660615314 8.761417717006154 0.24349785280943734 -0.2848403214480938 -1.151850189675976 -2.5030771900181152 -0.2467906444399286 -15.665520547640757 -0.11949608945884478 3.113099562074974 0.06758051673676577 -9.858923958093163 61.00015872308122 2.477634464751917 22.10031041583587 6.352985526228638 4.339847049235778 98.11433482552314 16.13964424289011 -0.33891309228009214 -5.563670641368334 4.5070810854666306 -0.12904054235100937 -1.5901821116331007 -0.01589953778257056 0.00960363540379641 -56.19269570553646 0.00805331442791672 -0.04661792763594591 -56.27379265434694 -38.763998119666084 -0.04814865299054624 0.0015554605746006184 -0.03219954690050251 0.015523146578938597 -0.004790658429358661 0.03801744708217461 0.011965771646279526 0.016980530280127682 -36.69440178107721 -0.01414095794345649 0.03156698833041691 0.0026777567092141196 0.03783787953877979 -0.0320074544578836 -0.04266871487010098 0.021087941438222926 -0.0057570105884082266 -19.785877500106817 0.004451148068560805 -0.028051063947670617 0.029127086802059464 -0.03348274341577411 -0.005499441674893459 0.004980766065349363 0.0036966979299246612 0.049254041982109184 24.041337785459636 0.04889335669579788 0.003989650538731505 28.87997645868266 -0.03415389873776378 -0.02158699781341956 28.874112139861076 -4.0903860619040156e-05 0.04302841850787267 -0.16238047426702126 0.5306924456260427 8.819531555375116 -54.9318206272952 20.799606717286153 -32.3051975619623 16.34953269937936 -12.563793055867048 -105.61530018209685 -3.2118736577632707 1.7787486507604962 -4.1103601761042805 -0.47074974263269764 0.08129493927024031 -8.130715975236479 -0.041269229051800305 0.036310318850083144 44.61661869878278 0.003946214765838833 0.016920264915017198 44.56084044254604 12.429037032067082 -0.028431627455803115 -0.04880658835056732 0.04568444715001221 -0.014345656408691022 -0.0006610459130873573 -0.036512414281570545 0.046569944039860485 -0.020669823549604262 11.127196846071332 -0.008976792946150582 -0.015562661124876307 -0.027146664166758375 0.017422240498211606 -0.03443141824797647 -4.593163004494386e-05 0.030130044648835275 0.025613093082391042 4.805271525581702 0.009774660151333157 0.020230488968470507 0.004426539852814668 -0.041965413325749254 0.028482102618362613 0.03103184805441621 0.021090057420946225 -0.02739840133336413 -5.588717636242837 0.02035033283307966 -0.007973417047891134 -6.752860948484996 -0.00934112760184431 -0.011688045251952795 -6.678146099662799 0.006684549983623379 0.012349385598376244 -0.03613274371120739 -0.03729524705009411 -0.014422635396117777 8.056604835527759 3.465438835760524 -19.178958138240592 -0.010753132624334324 10.397377238099034 0.008540241748328594 -5.581538214061705 -15.707413602875945 3.1806752726057135 0.012109115078348205 -0.028150294418245753 0.02023975436041709 0.03172492448731551 4.676688689167918 -0.044794097223640944 12.458577620747539 -8.202811189633733 6.891496297357028 -0.01798357532920793 46.379895809140585 0.02789517740044925 -4.312321117272825 -14.780709848775452 -3.8225689934121876 0.04806236870710641 0.013636899902216927 0.04728272204831498 0.04068663537790714 -10.763771821402981 -0.02420522464289065 
0.041060616538471754 0.005299016066752958 -0.020462523229141938 -0.04264622166272656 0.014369782197458948 0.009434851259778063 -3.3892032217996997 8.692687532633684 -0.6315622166948391 -0.7974185811093292 3.1707724576916703 0.3588129569988665 -0.8903988278662714 0.22137267831550025 -1.7325108458409832 -0.17076525351142877 0.6127885418948007 -1.0723346227245276 -0.6049611851531896 8.750274516085371 0.3332109379909822 -0.30920872763308016 -1.1070865934817773 -2.419244992942734 -0.25038265175635077 -15.603926180623013 -0.14534643496838026 3.171004195394316 0.04863670019680888 -9.806387732649815 60.33902748609949 1.8268854182301426 22.296052697796387 4.87034338173248 3.8969310752345696 98.49237764507248 16.314773617818005 -0.43538008933011313 -5.277607822755547 4.526866645184476 -0.1122595585174022 -1.5918883977614646 0.028884549283377615 -0.011355695987545081 -56.20450935105226 -0.013609707198400298 -0.0024151211838322334 -56.21536313510381 -38.80332076330843 -0.014975554582137693 -0.025122114905788744 -0.03993375674330291 -0.0454832294344543 0.014749449451285524 0.04659358701644069 -0.031285912928776305 -0.04385154125548524 -36.717603244122024 -0.02695299508744048 -0.025634014517625148 -0.030150013878692133 0.028830466839374472 -0.0021163697618033976 0.009156457171092192 0.026156224192250895 -0.0027266616978462925 -19.770076176193765 0.0065469515138737895 0.03783829614478946 0.021417191803209883 -0.01477807316577601 -0.014802828826301727 0.017140524381179422 0.04391731613320996 0.019334130673622236 24.036542246415763 0.01024110885078689 -0.03626818495135994 28.907399298092205 0.002265971666024384 0.009306304563167115 28.817758193165062 -0.003263737164237784 0.03440881737785566 -0.2295094485464061 0.4637526105396281 8.792169733968073 -53.77983227580131 20.457241009163315 -32.69722893354072 21.080593423959012 -14.005934400461982 -107.14611810130398 -2.5475029921355765 2.300538175999217 -4.863268129207739 -0.4958541310744702 0.0998535595849121 -8.122724115302937 -0.016852658532587494 -0.026352789992124807 44.55641281675241 -0.012145199990043992 -0.019152477602452193 44.577500712547426 12.494064987614161 -0.006260598872108593 -0.005664378834354447 -0.008108535984606011 -0.01444960817061444 -0.0026896834561984536 -0.008472198290960065 0.019487718258620394 0.015109799998796428 11.068428949436875 -0.02553427827054118 0.02533368023846101 0.00035444960083090305 0.01768361068640736 -0.02478206023527805 0.03637289976235999 -0.007675646949173839 -0.025915184051576796 4.772615685933874 0.037824726519663295 0.04794204376109516 -0.04500250044502929 -0.016179521063198893 -0.0009239443257216011 0.006320855884240632 -0.03650508608773551 -0.004378135827432968 -5.577916745239683 -0.011035197040868933 -0.0017548875033390839 -6.740155683982954 -0.017453931845675393 0.02909757640499105 -6.732353418959547 0.000249972751298079 -0.0027171738447882648 -0.009530645611120134 0.0045432977872439185 -0.04064366528417368 8.067366459569758 3.500774322958624 -19.199160083472304 -0.0006586229463488367 10.38053408543174 -0.015827015209240937 -5.658883695799031 -15.659622157588855 3.2100645064831235 -0.0012809149312326834 -0.009944343824904719 0.007339724783649263 -0.004321742391943358 4.735720764904746 -0.03840616919989761 12.48482295441491 -8.206713191036474 6.877950018921915 -0.01936041693555728 46.34834726763624 0.039783049638990424 -4.32551838803541 -14.707762589686673 -3.803736925494685 -0.006899460007304187 -0.008446072223391209 0.022960485125560547 0.030634103743813125 -10.78687700322032 -0.029387454640340666 
-0.00020214164691208822 0.011366450480410746 -0.03014762906369549 0.023996042105480304 -0.04675811023992674 -0.033427228418449584 -3.391278397785521 8.794665575562137 -0.6174159263420457 -0.8517102661809252 3.2129053821092577 0.4295995952037843 -0.8976295812816206 0.23887322143398296 -1.6949491709370468 -0.20827575523877773 0.6313937915347563 -1.0823638547274999 -0.5392244792997904 8.780308125832233 0.357272783631979 -0.2660870005071894 -1.1030961143063625 -2.396102823780512 -0.2446222271990312 -15.498576464542113 -0.15398680646311608 3.138921191718213 -0.0009450767050117742 -9.755576014113311 59.64975662104281 1.3443766012740033 22.41251788238083 3.557029516157246 3.4222674704632015 98.53907662961882 16.412452659257227 -0.38454403116685887 -5.046994354275661 4.514799786951507 -0.10753089905375877 -1.6423732843591619 0.012272856147560563 0.03811790800717707 -56.256970949569485 -0.03425475235233015 0.00783468077684044 -56.20753111443611 -38.7319988235874 0.02792465739047047 -0.02491610925927894 -0.03829776821511626 -0.0087080705686759 0.0033625972141939986 0.026775622788591063 -0.043827067400852765 1.1122119579214463e-05 -36.694999015007376 0.0006292377526875858 0.04325972039725776 -0.00703334447878714 -0.018616696152590217 0.009815082150847273 -0.015245703556711636 0.038042066718382624 0.0064139040962293845 -19.720769147013264 0.011861665018731125 0.013183686887600242 -0.04284657596003908 0.04478874428430705 -0.04884700103403939 0.02791119166134255 0.029427016201084438 0.003546391680492161 24.067446224586806 -0.0010632351617164153 0.027007664101195924 28.880612391981863 -0.0015599123675752965 0.04054348114157818 28.89237436788833 -0.015087662672575327 -0.027708044506456964 -0.2069914398287745 0.4816948200505417 8.825568196972299 -52.78859522467603 20.09509188081981 -32.90791186774494 24.99720429776525 -15.197702947356069 -108.28997302390181 -2.062309993101276 2.784569507561739 -5.551552403260614 -0.5124897530178384 0.08049403684887561 -8.125825228467422 0.01392277486923624 0.046610227764922796 44.60206944128243 -0.009647989705580017 -0.030667918715725787 44.555078951893364 12.42361585411909 0.04198034270472747 -0.016044012229644928 -0.026048290874686516 0.03255558995909945 -0.03709835558513078 -0.023449042812879288 0.021242804735047395 -0.009281489981807601 11.123619071152063 -0.03156855686709962 0.022426002108710406 0.040516200068766724 -0.009496124487729287 0.04942741371685545 -0.011432831163603475 -0.028510972975519775 -0.02827317995855552 4.781948864996363 0.02636352975677527 0.008924201901959502 0.032573854013537455 -0.010645486288464786 0.02868875544342913 0.005772812986039876 -0.0010715951152206061 -0.000768496786436405 -5.586877581770058 0.024315726304335827 -0.014346231754684363 -6.705278410163904 0.020521917973740717 -0.023260380635246224 -6.697667398465067 -0.023371310695880065 -0.017499535592486966 0.04583805504754993 -0.01559823387450357 0.03455926397939919 8.048386120764834 3.4965058407233625 -19.20104167423178 -0.0025389962509725123 10.416613479962287 0.05578196504962056 -5.634896576665447 -15.65370491829142 3.176686599839364 -0.0023763402592778607 0.0022904878940518416 -0.03749026099612956 -0.007088840691690986 4.653997135057748 0.032180744907188606 12.449758114672877 -8.20446108871026 6.852060846158268 -0.011932838420567062 46.350540161038595 -0.02863284208611585 -4.339663194525098 -14.764718598042743 -3.8378601985414096 0.02540763406733375 0.018865711592720293 -0.008621605683583082 -0.03289956078170393 -10.77191233004094 -0.01860021021394053 
-0.04210006378858221 0.009085799451698524 0.029626472152914987 0.006638930685403149 0.0030939728302062947 0.046446500639626465 -3.39005699313079 8.775605308448357 -0.6303582799554224 -0.8556624679025434 3.146479030479493 0.3701091624461036 -0.873614794327191 0.22273143826920702 -1.6536403208856107 -0.1878716781192321 0.558936462348814 -1.0371650755818829 -0.5590821150187198 8.882393920165836 0.331468453627937 -0.23552647137602206 -1.1181161888093083 -2.4401195417124706 -0.20296208799810575 -15.50389729803178 -0.07764841232353709 3.0605620238548146 0.08443845667182599 -9.792582689775106 59.41633621188353 1.3647913258098558 22.961261850622122 2.823854880615131 3.0031386657174024 98.32508331245347 16.451617508350786 -0.4495607564528967 -4.7943877693091945 4.537382236262548 -0.12240748571824231 -1.5992599135163323 -0.0058995916225894176 -0.01011887500254606 -56.2351827871725 0.04000656144954267 -0.022913825917513043 -56.24637286848726 -38.76701784206713 0.01653448131404199 -0.009434333623384247 -0.012510949585667465 -0.010580858251689973 0.012759046624324855 -0.02783764717787779 -0.02802036704451439 -0.029321168860386573 -36.69788567939465 -0.04428334456109717 -0.013831318416050214 -0.0003552354627045058 0.00811940758131326 -0.027521200037116854 0.013611530083104199 0.03672721528326255 -0.02669973934790047 -19.734139306792084 -0.03910320111325891 0.023852548434024966 -0.010319576810205448 -0.006054523253116308 0.0498448517593839 -0.019796043280071996 0.006427037998873202 0.02494863682840004 24.074227238379926 0.02353292017446412 0.0045212355123575325 28.844323751328456 -0.04782137229158292 -0.0010732588013441663 28.891520571488517 0.04786775988071347 -0.036843703764499795 -0.16292891254252387 0.48621152279111074 8.871651799369415 -52.48730561565964 20.083741984620584 -33.33246665313184 27.011693580839808 -15.767190092922673 -108.3756382698432 -1.969705240892955 3.0725625893026653 -6.007391674311392 -0.5156280888789859 0.08523541263633826 -8.170957081809135 -0.02874400923623743 0.003945372423858799 44.53797248990278 0.009987380779832498 -0.044382277451507496 44.523231260658406 12.416968283600607 0.008539518889227899 -0.012103057398695116 -0.04945778542748318 -0.004818011129332284 0.03314716774446748 0.01832697157525264 -0.027376635827316274 0.008650652948437719 11.096587768158722 -0.01865494984237339 -0.004112629678904307 -0.0264651524484553 -0.02111330371872117 0.009537275122418663 0.04231947677668274 -0.01679921017760017 0.046013129306869016 4.746113042572782 -0.020707658877311387 0.040209788660140626 -0.035295089567764934 -0.00794612155593401 -0.00397254320342436 -0.04029257366881617 -0.01932040165154049 0.019435684479859786 -5.603452332374969 -0.04560083155355894 -0.03246819312583226 -6.757902367352925 0.018115416283751556 0.041199592854553914 -6.728194192408858 0.04214692158858072 0.03830078925359818 0.0009657227975730592 -0.046069062864273015 0.009217463355219179 8.031919974413846 3.485383101030424 -19.222851968988273 -0.034965117275848945 10.423117157273785 0.009851804720947894 -5.665224194832852 -15.646654569685666 3.1896864063073607 0.013747919376948884 0.0032383814472507176 0.04774605335996806 -0.01884029681027264 4.735269305210955 -0.043112782953829885 12.450131689897535 -8.232282408793138 6.872507162717108 0.04128521673081267 46.391140274406276 -0.002725510255928686 -4.367120231830452 -14.736184264153035 -3.8000705915385264 -0.03310606119225954 -0.005467558068741148 -0.0026898927476239082 0.01442155841871161 -10.74758419667041 0.016087401828103712 
